<?xml version="1.0" encoding="UTF-8"?><svg id="logo" xmlns="http://www.w3.org/2000/svg" viewBox="0 0 814.46 261.06"><defs><style>.cls-1{fill:none;stroke:#000;stroke-linecap:round;stroke-linejoin:round;stroke-width:16px;}.cls-2{fill:#000;stroke-width:0px;}</style></defs><path id="box" class="cls-2" d="M414.09,200.27c5.22,7.3,4.17,16.69-2.09,21.9-7.3,5.22-17.73,4.17-22.95-2.09l-36.51-46.94-35.46,45.89c-5.22,7.3-15.65,7.3-22.95,2.09s-8.34-14.6-3.13-21.9l41.72-54.24-41.72-54.24c-5.22-7.3-3.13-17.73,3.13-22.95,7.3-5.22,17.73-3.13,22.95,3.13l35.46,46.94,36.51-44.85c5.22-7.3,14.6-8.34,22.95-3.13,7.3,5.22,7.3,15.65,2.09,22.95l-40.68,53.2,40.68,54.24ZM224.26,194.01c-27.12,0-49.02-20.86-49.02-47.98s21.9-47.98,49.02-47.98,49.02,21.9,49.02,47.98c-1.04,27.12-22.95,47.98-49.02,47.98ZM80.31,194.01c-27.12,0-49.02-20.86-49.02-47.98s21.9-47.98,49.02-47.98,49.02,21.9,49.02,47.98-21.9,47.98-49.02,47.98ZM224.26,66.76c-30.25,0-57.37,16.69-70.93,41.72-13.56-25.03-40.68-41.72-71.97-41.72-18.77,0-35.46,6.26-49.02,15.65V15.65c0-8.34-7.3-15.65-15.65-15.65C7.3,0,0,7.3,0,15.65v131.42c1.04,43.81,36.51,78.23,80.31,78.23,31.29,0,58.41-17.73,71.97-42.77,13.56,25.03,40.68,42.77,70.93,42.77,44.85,0,81.36-35.46,81.36-80.31,1.04-42.77-35.46-78.23-80.31-78.23Z"/><g id="names"><path class="cls-1" d="M560.52,193.43c-4.96-10.67-18.44-17.36-29.68-16.18-21.02,2.2-33.59,29.39-23.89,47.7,3.62,6.83,10.77,11.54,18.41,12.69s15.64-1.1,21.91-5.63,10.82-11.24,13.29-18.56"/><path class="cls-1" d="M562.52,181.43c-1.17,15.23-2.59,43.14-4,61"/><path class="cls-1" d="M585.93,179.75c-1.21,21.27-2.43,42.54-3.64,63.82"/><path class="cls-1" d="M583.18,243.98c.83-12.11,4.24-24.5,9.47-35.47,4.27-8.95,11.53-20.16,21.95-22.14s17.85,5.84,18.86,15.35c1.52,14.36,2.04,28.82,1.57,43.26.28-8.44,1.02-17.04,2.1-25.41,1.02-7.91,3.13-15.89,7.81-22.34,6.5-8.97,19.99-14.86,29.98-7.71,5.99,4.29,8.47,11.94,9.84,19.18,2.46,12.96,2.56,26.37.29,39.37"/><path class="cls-1" d="M714.91,222.53c6.04.24,12.35.43,18.2-1.32,5.03-1.5,9.77-4.63,12.23-9.27,3.36-6.35,1.24-14.71-5.5-17.73-6.14-2.75-14.17-1.08-19.29,3.08s-7.99,9.72-9.78,15.73c-3.4,11.46-5.14,25.97,6.3,33.46,5.26,3.44,11.84,4.54,18.07,3.74s12.13-3.39,17.41-6.81"/><path class="cls-1" d="M806.46,198.63c-4.99-6.22-13.05-10.1-20.94-7.25-7.43,2.69-11.15,12.07-7.09,19.04,1.72,2.97,4.53,5.14,7.42,6.99,4.44,2.85,9.31,5.17,13.05,8.9,7.6,7.59,5.52,19.86-3.89,24.99-6.48,3.54-16.03,1.68-21.35-5.08"/><path class="cls-1" d="M435.48,168.29c-1.3,23.67-2.66,42.47-3.96,66.13"/><path class="cls-1" d="M436.65,186.27c6.96-6.7,14.55-13.87,24.41-15.67,6.96-1.27,14.89.89,18.92,6.7,2.81,4.06,3.39,9.26,3.18,14.19-.69,16.27-1.72,30.66-2.64,46.93"/></g></svg>